HIERARCHY
ROOT Joint1
{
	OFFSET 0.000000 0.000000 0.000000
	CHANNELS 6 Xposition Yposition Zposition Xrotation Yrotation Zrotation
	JOINT Joint2
	{
		OFFSET -0.000000 0.000000 1.456275
		CHANNELS 6 Xposition Yposition Zposition Xrotation Yrotation Zrotation
		JOINT Joint3
		{
			OFFSET -0.000000 0.000002 1.471446
			CHANNELS 6 Xposition Yposition Zposition Xrotation Yrotation Zrotation
			JOINT Joint4
			{
				OFFSET 0.625745 0.000000 0.917755
				CHANNELS 6 Xposition Yposition Zposition Xrotation Yrotation Zrotation
				JOINT Joint5
				{
					OFFSET -0.629534 0.000001 0.940221
					CHANNELS 6 Xposition Yposition Zposition Xrotation Yrotation Zrotation
					JOINT Joint6
					{
						OFFSET -0.000001 0.113772 1.960660
						CHANNELS 6 Xposition Yposition Zposition Xrotation Yrotation Zrotation
						JOINT Joint7
						{
							OFFSET -0.669733 -0.113771 0.388340
							CHANNELS 6 Xposition Yposition Zposition Xrotation Yrotation Zrotation
							End Site
							{
								OFFSET 0.005509 0.005509 0.438980
							}
						}
					}
				}
			}
		}
	}
}
MOTION
Frames: 9
Frame Time: 0.041667
0.000000 0.000000 0.000000 -0.000000 1.019410 0.065771 -0.000000 0.000000 1.456275 -0.000000 -44.954331 -0.000000 -0.000000 0.000002 1.471446 0.000000 -1.133461 0.016402 0.625745 0.000000 0.917755 0.000004 135.000929 -0.000001 -0.629533 0.000001 0.940221 -0.000000 1.709737 0.037590 -0.000001 0.113772 1.960660 -88.298507 90.033846 0.003871 -0.669733 -0.113771 0.388341 -0.704174 3.566197 134.907984 
0.000000 0.000000 0.000000 -0.000000 1.019410 0.263670 -0.000000 0.000000 1.456275 -0.000000 -44.869005 0.000000 -0.000000 0.000002 1.471446 0.000000 -1.133461 0.168077 0.625744 0.000000 0.917755 0.000004 134.920196 -0.000001 -0.629533 0.000001 0.940221 0.000000 1.709736 0.197945 -0.000001 0.113772 1.960661 -88.302871 90.191842 0.000650 -0.669733 -0.113771 0.388340 -0.700831 3.566186 134.719771 
0.000000 0.000000 0.000000 -0.000000 1.019410 0.581620 -0.000000 -0.000000 1.456275 -0.000000 -44.731927 -0.000000 -0.000000 0.000002 1.471446 0.000000 -1.133456 0.411762 0.625745 0.000000 0.917755 0.000003 134.790477 -0.000001 -0.629534 0.000001 0.940221 -0.000000 1.709736 0.455575 -0.000000 0.113772 1.960660 -88.303452 90.445693 0.000280 -0.669733 -0.113771 0.388340 -0.695461 3.566145 134.417454 
0.000000 0.000000 0.000000 -0.000000 1.019410 1.009900 -0.000000 0.000000 1.456275 0.000000 -44.547269 -0.000000 -0.000000 0.000002 1.471446 0.000000 -1.133460 0.740006 0.625744 0.000000 0.917754 0.000004 134.615761 -0.000001 -0.629534 0.000001 0.940221 -0.000000 1.709736 0.802603 -0.000001 0.113772 1.960660 -88.303650 90.787619 0.000168 -0.669733 -0.113771 0.388339 -0.688228 3.566046 134.010197 
0.000000 0.000000 0.000000 -0.000000 1.019410 1.538789 -0.000000 0.000000 1.456275 -0.000000 -44.319236 0.000000 -0.000000 0.000002 1.471446 0.000000 -1.133459 1.145360 0.625745 0.000000 0.917755 0.000003 134.399982 -0.000001 -0.629533 0.000001 0.940221 -0.000000 1.709736 1.231154 -0.000001 0.113772 1.960661 -88.303718 91.209875 0.000103 -0.669733 -0.113771 0.388341 -0.679297 3.565853 133.507276 
0.000000 0.000000 0.000000 -0.000000 1.019410 2.158566 -0.000000 -0.000000 1.456275 -0.000000 -44.052026 -0.000000 -0.000000 0.000002 1.471446 0.000000 -1.133456 1.620373 0.625744 0.000000 0.917755 0.000004 134.147142 -0.000001 -0.629534 0.000001 0.940221 0.000000 1.709736 1.733349 -0.000001 0.113772 1.960660 -88.303780 91.704695 0.000071 -0.669733 -0.113771 0.388341 -0.668834 3.565528 132.917954 
0.000000 0.000000 0.000000 -0.000000 1.019410 2.859509 -0.000000 -0.000000 1.456275 0.000000 -43.749810 -0.000000 -0.000000 0.000002 1.471446 0.000000 -1.133456 2.157593 0.625745 0.000000 0.917755 0.000003 133.861162 -0.000001 -0.629534 0.000001 0.940221 -0.000000 1.709736 2.301312 -0.000001 0.113772 1.960660 -88.303800 92.264319 0.000059 -0.669733 -0.113771 0.388340 -0.657006 3.565029 132.251423 
0.000000 0.000000 0.000000 -0.000000 1.019410 3.631896 -0.000000 -0.000000 1.456275 0.000000 -43.416794 -0.000000 -0.000000 0.000002 1.471446 0.000000 -1.133461 2.749571 0.625744 0.000000 0.917755 0.000003 133.546044 -0.000002 -0.629534 0.000001 0.940221 0.000000 1.709736 2.927166 -0.000002 0.113772 1.960661 -88.303821 92.880983 0.000038 -0.669733 -0.113771 0.388340 -0.643980 3.564322 131.516959 
0.000000 0.000000 0.000000 -0.000000 1.019410 4.466394 -0.000000 0.000000 1.456275 -0.000000 -43.057000 0.000000 -0.000000 0.000002 1.471446 0.000000 -1.133460 3.389151 0.625744 0.000000 0.917755 0.000003 133.205587 0.000000 -0.629533 0.000001 0.940221 -0.000000 1.709736 3.603347 -0.000001 0.113772 1.960660 -88.303834 93.547241 0.000039 -0.669733 -0.113771 0.388340 -0.629917 3.563370 130.723455 
